<?xml version="1.0" encoding="UTF-8"?>
<svg xmlns="http://www.w3.org/2000/svg" version="1.1" width="300" height="300" viewBox="0 0 300 300"><rect x="0" y="0" width="300" height="300" fill="#ffffff"/><g transform="scale(10.345)"><g transform="translate(0,0)"><path fill-rule="evenodd" d="M10 0L10 2L11 2L11 0ZM12 0L12 1L13 1L13 2L12 2L12 4L14 4L14 7L15 7L15 8L13 8L13 9L12 9L12 7L13 7L13 5L11 5L11 6L10 6L10 4L11 4L11 3L8 3L8 4L9 4L9 5L8 5L8 7L9 7L9 8L6 8L6 9L5 9L5 8L0 8L0 11L1 11L1 9L2 9L2 10L3 10L3 9L5 9L5 10L4 10L4 11L5 11L5 14L3 14L3 15L2 15L2 16L1 16L1 14L2 14L2 12L0 12L0 21L1 21L1 17L3 17L3 18L2 18L2 19L3 19L3 21L4 21L4 19L3 19L3 18L5 18L5 20L6 20L6 21L7 21L7 20L6 20L6 19L8 19L8 23L10 23L10 24L11 24L11 25L12 25L12 26L13 26L13 27L12 27L12 29L13 29L13 28L14 28L14 29L18 29L18 28L14 28L14 27L16 27L16 26L17 26L17 25L18 25L18 27L19 27L19 28L22 28L22 27L23 27L23 26L24 26L24 27L26 27L26 26L24 26L24 25L27 25L27 28L24 28L24 29L27 29L27 28L28 28L28 26L29 26L29 23L27 23L27 22L29 22L29 20L28 20L28 19L27 19L27 16L28 16L28 15L27 15L27 12L28 12L28 11L27 11L27 12L25 12L25 9L26 9L26 8L25 8L25 9L24 9L24 8L23 8L23 9L22 9L22 8L20 8L20 9L19 9L19 10L17 10L17 9L18 9L18 8L17 8L17 9L16 9L16 10L15 10L15 8L16 8L16 7L17 7L17 4L18 4L18 7L19 7L19 5L20 5L20 3L21 3L21 0L18 0L18 1L20 1L20 2L18 2L18 3L17 3L17 0L16 0L16 1L14 1L14 0ZM8 1L8 2L9 2L9 1ZM13 2L13 3L15 3L15 2ZM16 3L16 4L15 4L15 5L16 5L16 4L17 4L17 3ZM18 3L18 4L19 4L19 3ZM9 6L9 7L10 7L10 6ZM11 6L11 7L12 7L12 6ZM15 6L15 7L16 7L16 6ZM20 6L20 7L21 7L21 6ZM10 8L10 9L8 9L8 10L9 10L9 11L6 11L6 10L7 10L7 9L6 9L6 10L5 10L5 11L6 11L6 12L11 12L11 13L10 13L10 14L13 14L13 13L12 13L12 11L13 11L13 12L14 12L14 14L16 14L16 13L17 13L17 12L18 12L18 13L20 13L20 14L19 14L19 16L18 16L18 14L17 14L17 15L15 15L15 16L14 16L14 15L12 15L12 17L11 17L11 16L10 16L10 15L9 15L9 14L8 14L8 13L6 13L6 14L8 14L8 15L5 15L5 16L4 16L4 15L3 15L3 17L5 17L5 16L7 16L7 17L6 17L6 18L8 18L8 19L9 19L9 20L11 20L11 22L10 22L10 23L11 23L11 22L13 22L13 23L12 23L12 25L14 25L14 26L16 26L16 25L17 25L17 24L18 24L18 25L19 25L19 27L20 27L20 23L19 23L19 22L18 22L18 23L17 23L17 20L18 20L18 21L19 21L19 20L21 20L21 19L22 19L22 18L21 18L21 17L20 17L20 16L21 16L21 14L22 14L22 17L23 17L23 18L24 18L24 19L25 19L25 21L26 21L26 20L27 20L27 19L25 19L25 18L24 18L24 17L26 17L26 16L27 16L27 15L26 15L26 13L25 13L25 12L24 12L24 9L23 9L23 12L22 12L22 13L20 13L20 12L21 12L21 11L22 11L22 10L21 10L21 9L20 9L20 10L19 10L19 11L17 11L17 10L16 10L16 11L17 11L17 12L14 12L14 11L15 11L15 10L14 10L14 9L13 9L13 10L12 10L12 9L11 9L11 8ZM27 8L27 9L28 9L28 10L29 10L29 9L28 9L28 8ZM10 9L10 11L11 11L11 9ZM13 10L13 11L14 11L14 10ZM3 12L3 13L4 13L4 12ZM23 12L23 13L22 13L22 14L23 14L23 13L24 13L24 14L25 14L25 13L24 13L24 12ZM28 13L28 14L29 14L29 13ZM23 15L23 16L24 16L24 15ZM13 16L13 17L12 17L12 18L13 18L13 17L14 17L14 18L15 18L15 19L14 19L14 20L13 20L13 19L12 19L12 21L14 21L14 24L15 24L15 25L16 25L16 24L17 24L17 23L16 23L16 22L15 22L15 21L14 21L14 20L15 20L15 19L16 19L16 20L17 20L17 19L18 19L18 20L19 20L19 18L20 18L20 17L18 17L18 16L17 16L17 17L16 17L16 16L15 16L15 17L14 17L14 16ZM15 17L15 18L16 18L16 17ZM17 17L17 18L18 18L18 17ZM28 17L28 18L29 18L29 17ZM10 18L10 19L11 19L11 18ZM21 21L21 24L24 24L24 21ZM22 22L22 23L23 23L23 22ZM25 23L25 24L27 24L27 23ZM8 24L8 29L9 29L9 27L11 27L11 26L10 26L10 25L9 25L9 24ZM22 25L22 26L21 26L21 27L22 27L22 26L23 26L23 25ZM0 0L0 7L7 7L7 0ZM1 1L1 6L6 6L6 1ZM2 2L2 5L5 5L5 2ZM22 0L22 7L29 7L29 0ZM23 1L23 6L28 6L28 1ZM24 2L24 5L27 5L27 2ZM0 22L0 29L7 29L7 22ZM1 23L1 28L6 28L6 23ZM2 24L2 27L5 27L5 24Z" fill="#000000"/></g></g></svg>
